<svg width="2190" height="925" viewBox="0 0 2190 925" fill="none" xmlns="http://www.w3.org/2000/svg">
<circle cx="319.134" cy="522.157" r="8.89655" transform="rotate(-29.6738 319.134 522.157)" fill="#934900"/>
<circle cx="359.072" cy="499.401" r="8.89655" transform="rotate(-29.6738 359.072 499.401)" fill="#934900"/>
<circle cx="399.009" cy="476.645" r="8.89655" transform="rotate(-29.6738 399.009 476.645)" fill="#934900"/>
<circle cx="438.947" cy="453.89" r="8.89655" transform="rotate(-29.6738 438.947 453.89)" fill="#934900"/>
<circle cx="478.884" cy="431.134" r="8.89655" transform="rotate(-29.6738 478.884 431.134)" fill="#934900"/>
<circle cx="338.954" cy="556.941" r="8.89655" transform="rotate(-29.6738 338.954 556.941)" fill="#934900"/>
<circle cx="358.773" cy="591.725" r="8.89655" transform="rotate(-29.6738 358.773 591.725)" fill="#934900"/>
<circle cx="378.593" cy="626.51" r="8.89655" transform="rotate(-29.6738 378.593 626.51)" fill="#934900"/>
<circle cx="398.413" cy="661.294" r="8.89655" transform="rotate(-29.6738 398.413 661.294)" fill="#934900"/>
<circle cx="418.232" cy="696.078" r="8.89655" transform="rotate(-29.6738 418.232 696.078)" fill="#934900"/>
<circle cx="438.051" cy="730.863" r="8.89655" transform="rotate(-29.6738 438.051 730.863)" fill="#934900"/>
<circle cx="378.891" cy="534.185" r="8.89655" transform="rotate(-29.6738 378.891 534.185)" fill="#934900"/>
<circle cx="398.711" cy="568.97" r="8.89655" transform="rotate(-29.6738 398.711 568.97)" fill="#934900"/>
<circle cx="418.53" cy="603.754" r="8.89655" transform="rotate(-29.6738 418.53 603.754)" fill="#934900"/>
<circle cx="438.35" cy="638.538" r="8.89655" transform="rotate(-29.6738 438.35 638.538)" fill="#934900"/>
<circle cx="458.169" cy="673.323" r="8.89655" transform="rotate(-29.6738 458.169 673.323)" fill="#934900"/>
<circle cx="477.989" cy="708.107" r="8.89655" transform="rotate(-29.6738 477.989 708.107)" fill="#934900"/>
<circle cx="418.829" cy="511.43" r="8.89655" transform="rotate(-29.6738 418.829 511.43)" fill="#934900"/>
<circle cx="438.648" cy="546.214" r="8.89655" transform="rotate(-29.6738 438.648 546.214)" fill="#934900"/>
<circle cx="458.468" cy="580.998" r="8.89655" transform="rotate(-29.6738 458.468 580.998)" fill="#934900"/>
<circle cx="478.288" cy="615.783" r="8.89655" transform="rotate(-29.6738 478.288 615.783)" fill="#934900"/>
<circle cx="498.107" cy="650.567" r="8.89655" transform="rotate(-29.6738 498.107 650.567)" fill="#934900"/>
<circle cx="517.926" cy="685.351" r="8.89655" transform="rotate(-29.6738 517.926 685.351)" fill="#934900"/>
<circle cx="458.766" cy="488.674" r="8.89655" transform="rotate(-29.6738 458.766 488.674)" fill="#934900"/>
<circle cx="478.586" cy="523.458" r="8.89655" transform="rotate(-29.6738 478.586 523.458)" fill="#934900"/>
<circle cx="498.405" cy="558.242" r="8.89655" transform="rotate(-29.6738 498.405 558.242)" fill="#934900"/>
<circle cx="518.225" cy="593.027" r="8.89655" transform="rotate(-29.6738 518.225 593.027)" fill="#934900"/>
<circle cx="538.044" cy="627.811" r="8.89655" transform="rotate(-29.6738 538.044 627.811)" fill="#934900"/>
<circle cx="557.864" cy="662.596" r="8.89655" transform="rotate(-29.6738 557.864 662.596)" fill="#934900"/>
<circle cx="498.704" cy="465.918" r="8.89655" transform="rotate(-29.6738 498.704 465.918)" fill="#934900"/>
<circle cx="518.523" cy="500.702" r="8.89655" transform="rotate(-29.6738 518.523 500.702)" fill="#934900"/>
<circle cx="538.343" cy="535.487" r="8.89655" transform="rotate(-29.6738 538.343 535.487)" fill="#934900"/>
<circle cx="558.162" cy="570.271" r="8.89655" transform="rotate(-29.6738 558.162 570.271)" fill="#934900"/>
<circle cx="577.982" cy="605.055" r="8.89655" transform="rotate(-29.6738 577.982 605.055)" fill="#934900"/>
<circle cx="597.801" cy="639.84" r="8.89655" transform="rotate(-29.6738 597.801 639.84)" fill="#934900"/>
<path d="M2040.39 51.4806L1791 197.914" stroke="#FFFBEA" stroke-width="6" stroke-linecap="round"/>
<path d="M2186.39 83.4806L1937 229.914" stroke="#934900" stroke-width="6" stroke-linecap="round"/>
<path d="M252.395 538.481L3.00008 684.914" stroke="#934900" stroke-width="6" stroke-linecap="round"/>
<path d="M294.395 726.481L45.0001 872.914" stroke="#934900" stroke-width="6" stroke-linecap="round"/>
<path d="M2017.39 286.481L1768 432.914" stroke="#FFFBEA" stroke-width="6" stroke-linecap="round"/>
<path d="M347.395 589.481L98.0001 735.914" stroke="#FFFBEA" stroke-width="6" stroke-linecap="round"/>
</svg>
