<?xml version="1.0" encoding="UTF-8"?>
<svg id="Layer_1" xmlns="http://www.w3.org/2000/svg" version="1.1" viewBox="0 0 30 30">
  <!-- Generator: Adobe Illustrator 29.2.1, SVG Export Plug-In . SVG Version: 2.1.0 Build 116)  -->
  <defs>
    <style>
      .st0 {
        fill: #ff9e86;
      }
    </style>
  </defs>
  <path class="st0" d="M14.7,9.3l.7,2,.2.7.6,1.7,1.7.6.7.2,2.4.9-2.1,1-.5.2-1.4.6-.6,1.4-.2.6-1.2,2.7-1.6-3.2-.2-.5-.6-1.4-1.4-.6-.6-.2-1.6-.7,1.4-.6.7-.2,1.4-.5.6-1.3.4-.8h0c0,0,0-.1,0-.1l1.1-2.4M15,0l-4.6,10.3-.4.8-.8.3L.2,14.9l9,4.2.7.3.3.7,4.9,9.9,4.4-9.4.3-.7.7-.3,9.5-4.6-10-3.8-.8-.3-.3-.8L15,0h0Z"/>
</svg>