<?xml version="1.0" encoding="UTF-8"?>
<svg id="Layer_1" xmlns="http://www.w3.org/2000/svg" version="1.1" xmlns:xlink="http://www.w3.org/1999/xlink" viewBox="0 0 131 131">
  <!-- Generator: Adobe Illustrator 29.3.0, SVG Export Plug-In . SVG Version: 2.1.0 Build 146)  -->
  <defs>
    <style>
      .st0 {
        fill: none;
      }

      .st1 {
        fill: #f90;
      }

      .st2 {
        clip-path: url(#clippath);
      }
    </style>
    <clipPath id="clippath">
      <rect class="st0" width="131" height="131"/>
    </clipPath>
  </defs>
  <g class="st2">
    <g>
      <rect class="st1" x="7.8" y="39.5" width="116.4" height="91.5" rx="45" ry="45"/>
      <path class="st1" d="M43.1,0h0c10.3,0,18.7,8.4,18.7,18.7v33.3c0,10.3-8.4,18.7-18.7,18.7h0c-10.3,0-18.7-8.4-18.7-18.7V18.7C24.4,8.4,32.8,0,43.1,0Z"/>
      <path class="st1" d="M84.7,0h0c10.3,0,18.7,8.4,18.7,18.7v31.2c0,10.3-8.4,18.7-18.7,18.7h0c-10.3,0-18.7-8.4-18.7-18.7v-31.2c0-10.3,8.4-18.7,18.7-18.7Z"/>
    </g>
  </g>
</svg>