<svg width="30" height="30" viewBox="0 0 30 30" fill="none" xmlns="http://www.w3.org/2000/svg">
<path d="M25.0195 0H4.98047C2.22983 0 0 2.22983 0 4.98047V24.2695C0 27.0202 2.22983 29.25 4.98047 29.25H25.0195C27.7702 29.25 30 27.0202 30 24.2695V4.98047C30 2.22983 27.7702 0 25.0195 0Z" fill="#49021F"/>
<path d="M10.8949 7.65112V20.4707C10.8949 20.605 10.8346 20.6721 10.7137 20.6721H8.27858C8.17111 20.6721 8.11744 20.6049 8.11768 20.4707V7.65112C8.11768 7.54389 8.17803 7.49022 8.29873 7.4901H10.7339C10.7544 7.4872 10.7752 7.4888 10.795 7.49478C10.8148 7.50076 10.8331 7.51098 10.8485 7.52473C10.864 7.53849 10.8762 7.55544 10.8845 7.57441C10.8927 7.59338 10.8967 7.61392 10.8962 7.6346L10.8949 7.65112ZM18.2292 20.872L18.0996 20.8733C17.1733 20.8874 16.2555 20.6949 15.4129 20.3098C14.628 19.9465 13.9719 19.3535 13.5313 18.6092C13.0861 17.8699 12.8581 16.9483 12.8474 15.8448L12.847 15.7615C12.8395 14.8379 13.0755 13.9286 13.5314 13.1252C13.9883 12.3288 14.6548 11.6729 15.4583 11.2287L15.5237 11.1931C16.3956 10.7102 17.4488 10.4687 18.6833 10.4687L18.7093 10.4688L18.7671 10.4701L18.8325 10.4726L18.9055 10.4764L18.986 10.4814L19.074 10.4879L19.2729 10.5042L19.3272 10.5089V6.5444C19.3272 6.45065 19.3676 6.40342 19.448 6.40342H21.9838C22.0002 6.40107 22.0169 6.40257 22.0326 6.40781C22.0483 6.41304 22.0626 6.42186 22.0743 6.43358C22.086 6.44529 22.0949 6.45957 22.1001 6.47529C22.1053 6.49101 22.1068 6.50773 22.1045 6.52413V18.4181C22.1053 18.6666 22.1154 18.9149 22.1347 19.1627L22.1537 19.4221L22.1705 19.6637L22.185 19.8871C22.1875 19.9289 22.1773 19.9705 22.1557 20.0065C22.1342 20.0424 22.1023 20.071 22.0643 20.0885C21.4101 20.3613 20.7287 20.5636 20.0317 20.6921C19.4369 20.8019 18.834 20.8621 18.2293 20.872H18.2292ZM19.3272 18.3778V12.8837C19.2185 12.8542 19.1074 12.834 18.9953 12.8233C18.8582 12.8095 18.7204 12.8028 18.5826 12.8032C18.0942 12.7983 17.6116 12.9086 17.1739 13.1252C16.7475 13.3371 16.3835 13.6561 16.1174 14.051C15.8422 14.4534 15.7046 14.9834 15.7047 15.6408C15.695 16.0795 15.7666 16.5162 15.916 16.9287C16.0377 17.2612 16.2299 17.5633 16.4796 17.8143C16.7186 18.0452 17.008 18.2174 17.3249 18.3174C17.6596 18.4258 18.0094 18.4802 18.3613 18.4785C18.549 18.4785 18.7234 18.4717 18.8845 18.4583C19.013 18.4486 19.1404 18.4274 19.2651 18.395L19.3272 18.3778Z" fill="#FF3366"/>
</svg>
