<svg width="30" height="30" viewBox="0 0 30 30" fill="none" xmlns="http://www.w3.org/2000/svg">
<g clip-path="url(#clip0_619_324)">
<path d="M22.9688 0H7.03125C3.148 0 0 3.148 0 7.03125V22.9688C0 26.852 3.148 30 7.03125 30H22.9688C26.852 30 30 26.852 30 22.9688V7.03125C30 3.148 26.852 0 22.9688 0Z" fill="#242938"/>
<path d="M3.95113 11.7432C3.95113 11.7432 3.39624 11.3432 4.0621 10.8092L5.6132 9.42214C5.6132 9.42214 6.0571 8.95514 6.52632 9.36202L20.8407 20.1994V25.3962C20.8407 25.3962 20.8337 26.2123 19.7864 26.1221L3.95113 11.7432Z" fill="#2489CA"/>
<path d="M7.6403 15.0928L3.95077 18.447C3.95077 18.447 3.57155 18.7291 3.95077 19.2331L5.6637 20.7911C5.6637 20.7911 6.07057 21.2281 6.67163 20.731L10.5831 17.7651L7.6403 15.0928Z" fill="#1070B3"/>
<path d="M14.1176 15.1206L20.8841 9.95381L20.8402 4.78478C20.8402 4.78478 20.5512 3.65662 19.5872 4.24384L10.583 12.4389L14.1176 15.1206Z" fill="#0877B9"/>
<path d="M19.7866 26.1291C20.1797 26.5313 20.6559 26.3996 20.6559 26.3996L25.929 23.8012C26.604 23.3411 26.5092 22.7701 26.5092 22.7701V7.2537C26.5092 6.57167 25.811 6.33601 25.811 6.33601L21.2408 4.13288C20.2421 3.51565 19.5879 4.24386 19.5879 4.24386C19.5879 4.24386 20.4293 3.63823 20.8409 4.7848V25.3014C20.8414 25.4413 20.8106 25.5796 20.7507 25.706C20.6305 25.9487 20.3693 26.1753 19.7428 26.0805L19.7866 26.1291Z" fill="#3C99D4"/>
</g>
<defs>
<clipPath id="clip0_619_324">
<rect width="30" height="30" fill="white"/>
</clipPath>
</defs>
</svg>
